<?xml version="1.0" encoding="utf-8"?>
<!-- Generator: Adobe Illustrator 24.1.3, SVG Export Plug-In . SVG Version: 6.00 Build 0)  -->
<svg version="1.1" xmlns="http://www.w3.org/2000/svg" xmlns:xlink="http://www.w3.org/1999/xlink" x="0px" y="0px"
	 viewBox="0 0 233.822 200" enable-background="new 0 0 233.822 200" xml:space="preserve">
<g id="Landmarks">
	<g>
		<g>
			<path fill="#BDBCBC" d="M-986.8955-43.5741l4.9844-4.9766h2.0644l0.9844-1.7969l6.7871-1.8086l1.8691,6.8106l-1.041,1.7207
				l1.041,1.792l-1.7851,6.7392l-6.8848-1.8076l-0.9844-1.7431l-2.0507,0.0136L-986.8955-43.5741z M-971.5791-43.6249
				l-1.4297-5.1406l-3.0098,5.1406l3.0098,5.2109L-971.5791-43.6249z M-983.4365-42.7509l3.7265,3.793l5.2032,1.3779l-2.9649-5.1709
				H-983.4365z M-977.4639-44.4687l2.9571-5.1543l-5.2266,1.3477l-3.7031,3.8066H-977.4639z"/>
		</g>
		<g>
			<path d="M-926.1611-38.456c-1.2696,0-2.5411,0.0108-3.8125-0.0068c-0.2774-0.002-0.3047,0.1055-0.3086,0.3359
				c-0.0039,0.2432,0.0527,0.3282,0.3164,0.3243c1.498-0.0137,2.9941,0.0048,4.4902-0.0137
				c0.3242-0.0039,0.3984,0.0928,0.377,0.3945c-0.045,0.6973,0.0683,1.3994-0.0684,2.0918
				c-0.2266,1.1455-1.2949,2.0371-2.4648,2.044c-1.7657,0.0097-3.5313,0.0136-5.2989-0.002
				c-1.3281-0.0098-2.498-1.1768-2.5097-2.5068c-0.0157-1.669-0.0176-3.336,0-5.0059c0.0136-1.3437,1.1972-2.4922,2.5488-2.498
				c1.7031-0.0088,3.4043-0.003,5.1055-0.003c1.8789-0.0019,3.33-1.4541,3.33-3.3379c0-0.6357-0.0019-1.2705,0.002-1.9062
				c0-0.1055-0.0527-0.2559,0.1484-0.249c0.7539,0.0205,1.5098-0.0743,2.2559,0.0468c1.2793,0.2071,2.1074,1.1729,2.1152,2.462
				c0.0117,1.7763,0.0117,3.5537,0,5.33c-0.0097,1.4776-1.0312,2.4883-2.5117,2.5
				C-923.6846-38.4472-924.9229-38.456-926.1611-38.456z M-926.3955-35.4901c0.0273-0.5284-0.3828-0.9903-0.9063-1.0245
				c-0.541-0.0351-1.0117,0.3887-1.0312,0.9287c-0.0215,0.5254,0.3984,0.9844,0.9199,1.0079
				C-926.8877-34.5526-926.4248-34.9677-926.3955-35.4901z"/>
			<path d="M-934.3604-48.7968c1.2598,0,2.5196-0.0078,3.7813,0.0059c0.2637,0.0049,0.3203-0.0791,0.3125-0.3233
				c-0.0078-0.2177-0.0117-0.3398-0.3008-0.3369c-1.5176,0.0156-3.0371,0-4.5566,0.0147c-0.2793,0.0039-0.3399-0.0821-0.3242-0.3428
				c0.039-0.707-0.0723-1.4229,0.0664-2.124c0.2324-1.1885,1.2968-2.0596,2.5117-2.0645c1.7344-0.0049,3.4687-0.0068,5.2031,0
				c1.3848,0.0078,2.5547,1.1758,2.5606,2.5586c0.0117,1.6348,0.0117,3.2744,0,4.9121c-0.0079,1.4033-1.1485,2.5381-2.5586,2.5459
				c-1.7012,0.0078-3.4024,0.001-5.1055,0.001c-1.8945,0-3.3203,1.4346-3.3203,3.333c0,0.6475,0,1.2939-0.002,1.9404
				c0,0.0967,0.0391,0.2295-0.1406,0.2207c-0.7637-0.0254-1.5332,0.0733-2.291-0.0517c-1.2246-0.1983-2.0684-1.1436-2.086-2.3858
				c-0.0234-1.8291-0.0253-3.6611,0.004-5.4912c0.0234-1.4277,1.0507-2.3965,2.498-2.4101
				C-936.8604-48.8046-935.6104-48.7968-934.3604-48.7968z M-933.1904-52.6747c-0.5274,0.0029-0.961,0.4385-0.961,0.9678
				c-0.0019,0.54,0.4532,0.9824,0.9903,0.9687c0.5273-0.0107,0.955-0.456,0.9492-0.9824
				C-932.2217-52.247-932.6611-52.6786-933.1904-52.6747z"/>
		</g>
		<g>
			<path fill="#BDBCBC" d="M-888.6299-34.0146L-888.6299-34.0146L-888.6299-34.0146L-888.6299-34.0146
				c-0.8086-0.1826-1.668-0.3056-2.5625-0.3662v-13.0429h-5.0156v1.5175l2.5058,0.3418v11.1875
				c-0.875,0.0616-1.7148,0.1836-2.5058,0.3623l0,0v1.583h7.5781V-34.0146L-888.6299-34.0146z"/>
			<g>
				<path fill="#BDBCBC" d="M-889.1123-38.078c0.0137,0,0.0273-0.002,0.041-0.002c8.3223-0.1641,7.6328-8.543,3.1133-9.0654
					c4.4101-0.5518,4.748-10.335-4.8223-6.9737v3.2735l1.2422,0.0078c0,0,0.213-0.3281,0.3027-1.9668
					c4.9356-1.668,5.7911,5.0098,0.1231,5.2207v1.6895c6.0215-0.2071,5.207,6.2412,0,5.9902v1.8242"/>
			</g>
		</g>
		<g>
			<path d="M-835.3057-50.4501c-3.2129,0-5.1543,2.2168-6.8808,4.6797c-1.6973-2.3526-3.8907-4.6797-7.4727-4.6797
				c-3.7637,0-6.8242,3.0635-6.8242,6.8281c0,3.7617,3.0605,6.8213,6.8242,6.8213c3.582,0,5.7754-2.3262,7.4727-4.6777
				c1.7265,2.4629,3.6679,4.6777,6.8808,4.6777c3.7618,0,6.8243-3.0596,6.8243-6.8213
				C-828.4814-47.3866-831.5439-50.4501-835.3057-50.4501z M-849.6592-39.2284c-2.4238,0-4.3945-1.9727-4.3945-4.3936
				c0-2.4258,1.9707-4.3984,4.3945-4.3984c2.6055,0,4.2031,1.7881,6.0078,4.3955
				C-845.4561-41.0165-847.0537-39.2284-849.6592-39.2284z M-835.3057-39.2284c-2.3066,0-3.7812-1.9951-5.4082-4.3965l0,0v-0.002
				c1.627-2.4013,3.1016-4.3935,5.4082-4.3935c2.4219,0,4.3926,1.9726,4.3926,4.3984
				C-830.9131-41.2011-832.8839-39.2284-835.3057-39.2284z"/>
			<rect x="-851.4053" y="-44.33" width="4.2578" height="1.4111"/>
			<polygon points="-834.3779,-45.7538 -835.7881,-45.7538 -835.7881,-44.33 -837.21,-44.33 -837.21,-42.9189 -835.7881,-42.9189 
				-835.7881,-41.497 -834.3779,-41.497 -834.3779,-42.9189 -832.9541,-42.9189 -832.9541,-44.33 -834.3779,-44.33 			"/>
		</g>
		<g>
			<path id="Icon_15_" fill="#BDBCBC" d="M-987.1151,77.0497c0,0.0957-0.0782,0.1621-0.1582,0.1621h-1.129
				c-0.0917,0-0.1699-0.0664-0.1699-0.1621V66.7489c0-0.0664,0.0782-0.1484,0.1699-0.1484h1.1309
				c0.0781,0,0.1563,0.082,0.1563,0.1484V77.0497L-987.1151,77.0497z M-984.1601,77.0497c0,0.0957-0.08,0.1621-0.1582,0.1621
				h-1.1288c-0.0918,0-0.1718-0.0664-0.1718-0.1621V66.7489c0-0.0664,0.08-0.1484,0.1718-0.1484h1.1288
				c0.0782,0,0.1582,0.082,0.1582,0.1484V77.0497L-984.1601,77.0497z M-981.2068,77.0497c0,0.0957-0.0782,0.1621-0.1582,0.1621
				h-1.1289c-0.0918,0-0.17-0.0664-0.17-0.1621V66.7489c0-0.0664,0.0782-0.1484,0.17-0.1484h1.1289
				c0.08,0,0.1582,0.082,0.1582,0.1484V77.0497z M-978.2401,77.0497c0,0.0957-0.0782,0.1621-0.1582,0.1621h-1.129
				c-0.0917,0-0.1699-0.0664-0.1699-0.1621V66.7489c0-0.0664,0.0782-0.1484,0.1699-0.1484h1.129c0.08,0,0.1582,0.082,0.1582,0.1484
				V77.0497z M-966.621,66.5868c0.0918,0,0.1582,0.082,0.1582,0.1621v1.1621c0,0.0938-0.0664,0.1748-0.1582,0.1748h-10.0176
				c-0.0644,0-0.1426-0.081-0.1426-0.1748v-1.1621c0-0.0811,0.0782-0.1621,0.1426-0.1621H-966.621z M-966.621,69.6385
				c0.0918,0,0.1582,0.0811,0.1582,0.1612v1.1621c0,0.0928-0.0664,0.1758-0.1582,0.1758h-10.0176
				c-0.0644,0-0.1426-0.083-0.1426-0.1758v-1.1621c0-0.0801,0.0782-0.1612,0.1426-0.1612H-966.621z M-966.621,72.6757
				c0.0918,0,0.1582,0.081,0.1582,0.1621v1.1611c0,0.0957-0.0664,0.1758-0.1582,0.1758h-10.0176
				c-0.0644,0-0.1426-0.0801-0.1426-0.1758v-1.1611c0-0.0811,0.0782-0.1621,0.1426-0.1621H-966.621z M-966.621,75.7128
				c0.0918,0,0.1582,0.081,0.1582,0.1621v1.1611c0,0.0947-0.0664,0.1758-0.1582,0.1758h-10.0176
				c-0.0644,0-0.1426-0.0811-0.1426-0.1758v-1.1611c0-0.0811,0.0782-0.1621,0.1426-0.1621H-966.621z"/>
		</g>
		<g>
			<path fill="#BDBCBC" d="M-974.9326-7.9667c1.5156-0.5674,2.5957-2.0254,2.5957-3.7363c0-2.2071-1.7891-3.9961-3.9942-3.9961
				c-2.207,0-3.9941,1.789-3.9941,3.9961c0,1.042,0.4023,1.9902,1.0586,2.7011c-3.3398,0.3575-5.9414,3.1827-5.9414,6.6172
				c0,3.6768,2.9805,6.6572,6.6582,6.6572c3.6758,0,6.6562-2.9804,6.6562-6.6572C-971.8936-4.7255-973.1046-6.7812-974.9326-7.9667z
				 M-976.3311-14.2187c1.3868,0,2.5137,1.1289,2.5137,2.5157c0,1.3847-1.1269,2.5136-2.5137,2.5136
				c-1.3867,0-2.5156-1.1289-2.5156-2.5136C-978.8467-13.0898-977.7178-14.2187-976.3311-14.2187z M-978.5498,2.7921
				c-2.8555,0-5.1777-2.3213-5.1777-5.1768c0-2.8535,2.3222-5.1777,5.1777-5.1777c2.8555,0,5.1777,2.3242,5.1777,5.1777
				C-973.3721,0.4708-975.6943,2.7921-978.5498,2.7921z"/>
			<path fill="#BDBCBC" d="M-978.5498-4.7519c-1.3066,0-2.3672,1.0606-2.3672,2.3672c0,1.3067,1.0606,2.3672,2.3672,2.3672
				c1.3066,0,2.3652-1.0605,2.3652-2.3672C-976.1846-3.6913-977.2432-4.7519-978.5498-4.7519z"/>
		</g>
		<g>
			<rect x="-940.6123" y="-15.0976" fill="#BDBCBC" width="5.959" height="2.3321"/>
			<rect x="-940.6123" y="1.7423" fill="#BDBCBC" width="5.959" height="2.331"/>
			<path fill="#BDBCBC" d="M-920.7197-2.1425h-0.5235v-7.1396h0.002v-1.5538h-0.002v-0.0019h-1.5547v0.0019h-0.7812
				c-0.4277,0-0.7773,0.3477-0.7773,0.7764c0,0.4287,0.3496,0.7774,0.7773,0.7774h0.7812v2.2334
				c-0.705-0.5625-1.623-0.9043-2.6308-0.9043c-2.2168,0-4.0156,1.6484-4.0156,3.6826c0,2.0332,1.7988,3.6826,4.0156,3.6826
				c1.0078,0,1.9258-0.3438,2.6308-0.9063v0.9063v0.001l2.0782-0.001c0.4297,0,0.7773-0.3486,0.7773-0.7773
				C-919.9424-1.7948-920.29-2.1425-920.7197-2.1425z M-925.4287-1.9853c-1.377,0-2.4942-1.0224-2.4942-2.2851
				c0-1.2637,1.1172-2.2881,2.4942-2.2881c1.3769,0,2.4922,1.0244,2.4922,2.2881C-922.9365-3.0077-924.0518-1.9853-925.4287-1.9853z
				"/>
			<path fill="#BDBCBC" d="M-934.3936-10.1737h-2.5898h-1.5566h-0.5176c-0.4278,0-0.7774,0.3466-0.7774,0.7753
				c0,0.4297,0.3496,0.7784,0.7774,0.7784h0.5176v3.1084v1.5547v1.8144h-0.5176c-0.4278,0-0.7774,0.3477-0.7774,0.7774
				c0,0.4287,0.3496,0.7773,0.7774,0.7773h0.5176h1.5566h2.0723c0.4297,0,0.7773-0.3486,0.7773-0.7773
				c0-0.4297-0.3476-0.7774-0.7773-0.7774h-2.0723v-1.8144h2.5898c1.7168,0,3.1094-1.3926,3.1094-3.1094
				S-932.6768-10.1737-934.3936-10.1737z M-934.3936-5.5116h-2.5898V-8.62h2.5898c0.8594,0,1.5547,0.6963,1.5547,1.5537
				C-932.8389-6.2069-933.5342-5.5116-934.3936-5.5116z"/>
		</g>
		<g>
			<path fill="#BDBCBC" d="M-836.5693-10.4765h-2.086c-0.039,0-0.0742,0.0254-0.0879,0.0635l-4.1367,11.0576
				c-0.0117,0.0293-0.0078,0.0606,0.0098,0.0869c0.0195,0.0264,0.0488,0.041,0.0801,0.041h1.9394
				c0.041,0,0.0781-0.0263,0.0918-0.0634l0.8359-2.3701h4.6055l0.836,2.3701c0.0136,0.0371,0.0507,0.0634,0.0917,0.0634h1.9395
				c0.0331,0,0.0625-0.0146,0.0801-0.041c0.0176-0.0263,0.0215-0.0576,0.0097-0.0869l-4.1191-11.0576
				C-836.4932-10.4511-836.5303-10.4765-836.5693-10.4765z M-835.8936-3.2519h-3.4531l1.7266-4.8691L-835.8936-3.2519z"/>
			<path fill="#BDBCBC" d="M-830.1904-11.7968c-0.3731,0-0.6797,0.1113-0.9082,0.3301c-0.2325,0.2187-0.3496,0.498-0.3496,0.832
				c0,0.334,0.1191,0.6094,0.3515,0.8194c0.2285,0.206,0.5332,0.3095,0.9063,0.3095c0.373,0,0.6797-0.1035,0.914-0.3086
				c0.2383-0.209,0.3594-0.4863,0.3594-0.8203c0-0.3349-0.1211-0.6152-0.3574-0.834
				C-829.5089-11.6874-829.8174-11.7968-830.1904-11.7968z"/>
			<path fill="#BDBCBC" d="M-829.2842-8.1855h-1.8125c-0.0527,0-0.0957,0.043-0.0957,0.0957v8.7676
				c0,0.0528,0.043,0.0947,0.0957,0.0947h1.8125c0.0528,0,0.0957-0.0419,0.0957-0.0947v-8.7676
				C-829.1885-8.1425-829.2314-8.1855-829.2842-8.1855z"/>
		</g>
		<g>
			<path fill="#BDBCBC" d="M-884.7471-11.2245h-3.8183c-0.0547,0-0.0957,0.0439-0.0957,0.0967V0.1036
				c0,0.0527,0.041,0.0957,0.0957,0.0957h1.8125c0.0527,0,0.0957-0.043,0.0957-0.0957v-4.2637h1.9101
				c1.2813,0,2.2754-0.3164,2.959-0.9375c0.6856-0.6269,1.0332-1.4922,1.0332-2.5781c0-1.0918-0.3379-1.9668-1.0078-2.5986
				C-882.4307-10.9042-883.4365-11.2245-884.7471-11.2245z M-886.6572-9.537h1.7187c0.7559,0,1.3086,0.1601,1.6446,0.4746
				c0.3339,0.3144,0.5019,0.7812,0.5019,1.3867c0,1.2422-0.7012,1.8457-2.1465,1.8457h-1.7187V-9.537z"/>
			<path fill="#BDBCBC" d="M-874.2647-8.9023c-0.7343,0-1.3945,0.1739-1.957,0.5157c-0.4609,0.2793-0.8398,0.6445-1.1289,1.0898
				V-8.661c0-0.0528-0.041-0.0967-0.0957-0.0967h-1.8125c-0.0527,0-0.0957,0.0439-0.0957,0.0967v8.7646
				c0,0.0527,0.043,0.0957,0.0957,0.0957h1.8125c0.0547,0,0.0957-0.043,0.0957-0.0957v-4.4375c0-0.8574,0.2324-1.4766,0.6895-1.8428
				c0.4629-0.372,1.0879-0.5605,1.8574-0.5605h0.539c0.0547,0,0.0977-0.042,0.0977-0.0947v-1.9727
				C-874.1671-8.8573-874.21-8.9023-874.2647-8.9023z"/>
		</g>
		<g>
			<path fill="#BDBCBC" d="M-935.2725,66.2519h-1.6072c-0.0468,0-0.0848,0.0399-0.0848,0.0878v10.2027
				c0,0.048,0.038,0.086,0.0848,0.086h1.6072c0.0467,0,0.0848-0.0381,0.0848-0.086V66.3398
				C-935.1877,66.2918-935.2258,66.2519-935.2725,66.2519z"/>
			<path fill="#BDBCBC" d="M-925.7448,65.7605h-1.6211c-0.0485,0-0.0848,0.0399-0.0848,0.0878v4.1534
				c-0.2128-0.424-0.5173-0.7789-0.9101-1.0592c-0.5103-0.3655-1.1332-0.5518-1.8529-0.5518c-0.6885,0-1.3131,0.1703-1.8546,0.5039
				c-0.5415,0.3353-0.9724,0.8232-1.2786,1.4522c-0.3063,0.6254-0.4602,1.3688-0.4602,2.2081c0,0.8481,0.1539,1.595,0.4602,2.2204
				c0.3062,0.6307,0.7371,1.1186,1.2786,1.4522c0.5415,0.3336,1.1661,0.503,1.8546,0.503c0.7197,0,1.3426-0.1845,1.8529-0.5499
				c0.3928-0.283,0.6973-0.6379,0.9101-1.0601v1.422c0,0.048,0.0363,0.086,0.0848,0.086h1.6211c0.0467,0,0.0848-0.0381,0.0848-0.086
				V65.8483C-925.66,65.8004-925.6981,65.7605-925.7448,65.7605z M-929.7206,75.0974c-0.6851,0-1.2405-0.2262-1.6505-0.6733
				c-0.41-0.448-0.6177-1.0778-0.6177-1.8691c0-0.7931,0.2076-1.4229,0.6177-1.8701s0.9637-0.6742,1.6505-0.6742
				c0.4326,0,0.827,0.1047,1.1696,0.3122c0.3409,0.2077,0.6142,0.5083,0.8132,0.8925c0.2006,0.385,0.301,0.8347,0.301,1.3395
				c0,0.5127-0.1003,0.9652-0.2993,1.3466c-0.1989,0.3779-0.4723,0.6759-0.8148,0.8835
				C-928.8953,74.9928-929.288,75.0974-929.7206,75.0974z"/>
		</g>
		<g>
			<path d="M-983.2979,25.7306h-4.3925c-0.0606,0-0.1094,0.0488-0.1094,0.1093v12.917c0,0.0606,0.0488,0.1114,0.1094,0.1114h2.0879
				c0.0605,0,0.1093-0.0508,0.1093-0.1114v-4.9033h2.1953c1.4747,0,2.6172-0.3623,3.4043-1.0801
				c0.7891-0.7197,1.1875-1.7158,1.1875-2.9638c0-1.2559-0.3886-2.2627-1.1601-2.9883
				C-980.6339,26.0968-981.7881,25.7306-983.2979,25.7306z M-985.4932,27.669h1.9746c0.8692,0,1.5059,0.1846,1.8926,0.5459
				c0.3828,0.3614,0.5781,0.8985,0.5781,1.5948c0,1.4296-0.8085,2.123-2.4707,2.123h-1.9746V27.669z"/>
			<path d="M-971.083,33.4571c-0.4707-0.1816-1.0938-0.3623-1.8535-0.5342c-0.5664-0.1318-1.0078-0.2539-1.3145-0.3613
				c-0.2949-0.1055-0.5449-0.2519-0.7383-0.4365c-0.1855-0.1729-0.2754-0.3975-0.2754-0.6865c0-0.3975,0.127-0.7012,0.3907-0.9327
				c0.2636-0.2304,0.6504-0.3466,1.1445-0.3466c0.6035,0,1.0938,0.1591,1.4551,0.4746c0.3613,0.3174,0.5859,0.7412,0.668,1.2607
				c0.0078,0.0537,0.0546,0.0928,0.1093,0.0928h1.9766c0.0312,0,0.0625-0.0137,0.082-0.0391
				c0.0215-0.0224,0.0313-0.0566,0.0254-0.0879c-0.162-1.0351-0.6152-1.873-1.3457-2.4912
				c-0.7305-0.6172-1.7109-0.9306-2.916-0.9306c-1.1563,0-2.0742,0.2763-2.7324,0.8203c-0.6641,0.5498-1,1.2763-1,2.1611
				c0,0.6846,0.1718,1.2334,0.5097,1.6358c0.334,0.3974,0.7442,0.6894,1.2168,0.8642c0.461,0.1719,1.0645,0.3457,1.7989,0.5166
				c0.58,0.124,1.0195,0.2393,1.3418,0.3525c0.3125,0.1114,0.5781,0.2676,0.7832,0.462c0.1992,0.1875,0.2968,0.4365,0.2968,0.7627
				c0,0.373-0.1308,0.6709-0.3945,0.915c-0.2656,0.2422-0.6367,0.3652-1.1074,0.3652c-0.666,0-1.209-0.164-1.6133-0.4873
				c-0.4023-0.3213-0.6348-0.747-0.6914-1.2627c-0.0078-0.0556-0.0547-0.0976-0.1094-0.0976h-2.0312
				c-0.0332,0-0.0625,0.0127-0.084,0.0381c-0.0195,0.0234-0.0293,0.0566-0.0254,0.0869c0.1641,1.0752,0.6484,1.9238,1.4434,2.5244
				c0.789,0.5967,1.8378,0.8994,3.1113,0.8994c1.1074,0,2.0019-0.2725,2.6601-0.8115c0.6641-0.544,1-1.2608,1-2.1338
				c0-0.708-0.1777-1.2754-0.5293-1.6895C-970.1768,33.9503-970.5986,33.6475-971.083,33.4571z"/>
		</g>
		<g>
			<path fill="#BDBCBC" d="M-933.9756,26.6827h-2.084c-0.041,0-0.0761,0.0244-0.0898,0.0615l-4.1367,11.0586
				c-0.0118,0.0293-0.0078,0.0625,0.0097,0.0879c0.0176,0.0254,0.0469,0.041,0.0782,0.041h1.9414
				c0.041,0,0.0781-0.0254,0.0898-0.0644l0.838-2.3692h4.6055l0.8359,2.3692c0.0137,0.039,0.0508,0.0644,0.0898,0.0644h1.9415
				c0.0312,0,0.0605-0.0156,0.0781-0.041c0.0195-0.0254,0.0234-0.0586,0.0117-0.0879l-4.1191-11.0586
				C-933.9014,26.7071-933.9365,26.6827-933.9756,26.6827z M-933.2998,33.9063h-3.4531l1.7265-4.8691L-933.2998,33.9063z"/>
			<path fill="#BDBCBC" d="M-922.3076,29.4083c-0.6543-0.3633-1.4278-0.5459-2.2988-0.5459c-0.8594,0-1.6329,0.1855-2.2969,0.5527
				c-0.6641,0.3682-1.1934,0.9053-1.5723,1.5967c-0.3769,0.6895-0.5683,1.5078-0.5683,2.4336c0,0.9336,0.1914,1.7578,0.5683,2.4482
				c0.3789,0.6924,0.9082,1.2295,1.5723,1.5967c0.664,0.3672,1.4375,0.5528,2.2969,0.5528c0.7421,0,1.4257-0.1387,2.0292-0.4141
				c0.6036-0.2754,1.1036-0.6621,1.4844-1.1504c0.3789-0.4873,0.6309-1.0518,0.75-1.6797c0.0059-0.0293-0.0019-0.0566-0.0215-0.0791
				c-0.0175-0.0215-0.0449-0.0342-0.0722-0.0342h-1.9414c-0.0469,0-0.086,0.0313-0.0938,0.0762
				c-0.0918,0.4844-0.3379,0.876-0.7344,1.166c-0.4003,0.2949-0.8964,0.4434-1.4785,0.4434c-0.6621,0-1.2246-0.211-1.6699-0.625
				c-0.4277-0.3985-0.668-1.0186-0.7129-1.8399h6.6465c0.0449,0,0.0859-0.0332,0.0937-0.0781
				c0.043-0.2314,0.0665-0.499,0.0665-0.7969c0-0.7773-0.1797-1.4902-0.5313-2.123
				C-921.1436,30.2735-921.6533,29.7696-922.3076,29.4083z M-924.6064,30.502c0.4296,0,0.83,0.0899,1.1914,0.2666
				c0.3574,0.1778,0.6425,0.4541,0.8496,0.8213c0.1972,0.3496,0.2929,0.7852,0.2851,1.2969h-4.7851
				c0.0566-0.7685,0.3047-1.3594,0.7422-1.7578C-925.8662,30.712-925.2881,30.502-924.6064,30.502z"/>
		</g>
		<g>
			<g>
				<g>
					<path d="M-871.2764,26.7052v11.3144c0,0.1211-0.0644,0.2334-0.1699,0.2949l-9.7988,5.6573
						c-0.0528,0.0302-0.1113,0.0478-0.1699,0.0478s-0.1172-0.0176-0.17-0.0478l-9.7988-5.6573
						c-0.1055-0.0615-0.1699-0.1738-0.1699-0.2949V26.7052c0-0.1211,0.0644-0.2334,0.1699-0.294l9.7988-5.6592
						c0.1055-0.0605,0.2364-0.0605,0.3399,0l9.7988,5.6592C-871.3408,26.4718-871.2764,26.5841-871.2764,26.7052z
						 M-885.4171,28.5724c-0.6445,0-1.2168,0.1513-1.7148,0.4472c-0.4981,0.2988-0.8829,0.71-1.1543,1.2373
						c-0.2715,0.5264-0.4082,1.1299-0.4082,1.8096c0,0.6787,0.1367,1.2812,0.4082,1.8096c0.2714,0.5254,0.6562,0.9365,1.1543,1.2304
						c0.498,0.294,1.0703,0.4424,1.7148,0.4424c0.8419,0,1.541-0.2129,2.0957-0.6357c0.5566-0.4239,0.9316-1.001,1.127-1.7324
						h-1.1739c-0.1621,0.4072-0.4199,0.7333-0.7715,0.9755c-0.3535,0.2432-0.7851,0.3643-1.2949,0.3643
						c-0.4062,0-0.7715-0.1016-1.0918-0.3008c-0.3203-0.2002-0.5722-0.4873-0.7558-0.8584
						c-0.1856-0.373-0.2774-0.8037-0.2774-1.2949c0-0.4971,0.0918-0.9336,0.2774-1.3057c0.1836-0.3711,0.4355-0.6572,0.7558-0.8584
						c0.3203-0.2002,0.6856-0.3008,1.0918-0.3008c0.5098,0,0.9414,0.1211,1.2949,0.3633c0.3516,0.2432,0.6094,0.5713,0.7715,0.9854
						h1.1739c-0.1954-0.7295-0.5704-1.3096-1.127-1.7373C-883.876,28.7882-884.5752,28.5724-885.4171,28.5724z"/>
				</g>
			</g>
			<path fill="#FFFFFF" d="M-875.4932,31.1837l-0.3105,1.4541h1.3008v1.0088h-1.5137l-0.3984,1.8427h-1.0372l0.3965-1.8427h-1.9297
				l-0.3984,1.8427h-1.0351l0.3964-1.8427h-1.4843v-1.0088h1.6972l0.3106-1.4541h-1.4453v-1.0186h1.6582l0.3984-1.8525h1.037
				l-0.3965,1.8525h1.9297l0.3985-1.8525h1.0371l-0.3985,1.8525h1.3399v1.0186H-875.4932z M-876.5303,31.1837h-1.9316
				l-0.3086,1.4541h1.9297L-876.5303,31.1837z"/>
		</g>
		<text transform="matrix(1 0 0 1 -851.5419 37.0614)" font-family="'Poppins-ExtraBoldItalic'" font-size="9.894px">CATIA</text>
		<g>
			<path stroke="#000000" stroke-width="0.5" stroke-linejoin="round" stroke-miterlimit="10" d="M-880.8813,70.2892
				c2.5276-1.7246,4.0103,0.5198,5.9913-5.5286C-877.4851,67.3582-879.2308,64.2755-880.8813,70.2892z"/>
			<path stroke="#000000" stroke-width="0.5" stroke-linejoin="round" stroke-miterlimit="10" d="M-881.9471,70.2892
				c-2.5294-1.7246-4.0121,0.5198-5.993-5.5286C-885.345,67.3582-883.5975,64.2755-881.9471,70.2892z"/>
			<path stroke="#000000" stroke-width="0.5" stroke-linejoin="round" stroke-miterlimit="10" d="M-880.8813,72.2018
				c2.5276,1.7246,4.0103-0.5198,5.9913,5.5286C-877.4851,75.1329-879.2308,78.2157-880.8813,72.2018z"/>
			<path stroke="#000000" stroke-width="0.5" stroke-linejoin="round" stroke-miterlimit="10" d="M-881.9471,72.2018
				c-2.5294,1.7246-4.0121-0.5198-5.993,5.5286C-885.345,75.1329-883.5975,78.2157-881.9471,72.2018z"/>
		</g>
	</g>
</g>
<g id="illustrator" display="none">
	<g display="inline">
		<g>
			<path fill="#FFFFFF" d="M186.328,194.5c-1.2451,0-1.6865-0.4414-1.6865-1.6855V59.8184h-0.1367
				c0.1094-0.7593,0.5244-1.0181,1.4873-1.0181h26.3975c1.1484,0,1.5176,0.3687,1.5176,1.5181v132.6641
				c0,1.1758-0.1992,1.5176-1.5176,1.5176H186.328z"/>
			<path d="M212.3897,59.3004c0.8748,0,1.0174,0.1427,1.0174,1.0181v132.664c0,0.9016,0,1.0174-1.0174,1.0174h-26.0618
				c-1.0226,0-1.1862-0.2815-1.1862-1.1855V60.3185v-0.824c0.1428-0.1562,0.3993-0.194,0.85-0.194H212.3897 M212.3897,58.3004
				h-26.398c-1.5137,0-2.0181,0.6731-2.0181,2.0181l0.1681,0v132.4959c0,1.3449,0.505,2.1855,2.1862,2.1855h26.0618
				c1.6812,0,2.0174-0.6732,2.0174-2.0174V60.3185C214.4071,58.8048,213.7339,58.3004,212.3897,58.3004L212.3897,58.3004z
				 M183.9735,60.3185L183.9735,60.3185L183.9735,60.3185z"/>
		</g>
		<g>
			<path fill="#FFFFFF" d="M198.9384,38.8003c-4.7891,0-8.8398-1.4771-11.7158-4.272c-3.0088-2.9233-4.5986-7.2036-4.5986-12.3779
				c0-9.959,6.6914-16.6504,16.6514-16.6504c9.959,0,16.6504,6.6914,16.6504,16.6504
				C215.9257,32.4204,209.4169,38.8003,198.9384,38.8003L198.9384,38.8003z"/>
			<path d="M199.275,6c9.6599,0,16.1501,6.4902,16.1501,16.1502c0,9.9618-6.3172,16.1502-16.488,16.1502
				c-9.7538,0-15.8129-6.1884-15.8129-16.1502C183.1242,12.4902,189.6147,6,199.275,6 M199.275,5
				c-9.5848,0-17.1508,6.3892-17.1508,17.1502c0,11.0972,7.0617,17.1508,16.8146,17.1502c10.2566,0,17.4864-6.053,17.4864-17.1502
				C216.4252,11.8935,209.5316,5,199.275,5L199.275,5z"/>
		</g>
		<g>
			<path fill="#FFFFFF" d="M129.8319,194.499c-1.2646,0-1.7988-0.3008-2.041-1.1484l-13.8867-50.9746H59.3324l-13.3818,50.8154
				c-0.2612,1.0439-0.4951,1.3076-2.0381,1.3076H19.1957c-0.6367,0-1.0151-0.0811-1.1567-0.248
				c-0.2354-0.2783-0.1309-1.0986-0.0317-1.6914L65.7469,25.4814c0.9126-3.2856,1.3745-6.0957,1.6997-14.0718
				c0.0005-1.2017,0.5503-1.2017,0.8457-1.2017h35.3096c0.9351,0,1.2495,0.1709,1.5332,1.3027l53.4741,181.4443
				c0.1475,0.5908,0.1338,1.0527-0.0439,1.2803c-0.1367,0.1748-0.4131,0.2637-0.8213,0.2637H129.8319z M85.6234,36.522
				c-3.4526,19.2349-11.873,50.8555-19.4941,78.9839l-0.1709,0.6309h41.144l-0.1567-0.6221
				c-1.4473-5.7373-3.5449-13.7344-5.7651-22.2002c-5.0479-19.2432-11.3301-43.1919-14.2402-56.8086l-0.0845-0.3955h-1.1587
				L85.6234,36.522z"/>
			<path d="M103.6019,10.708c0.6919,0,0.8166,0,1.0589,0.9639l53.4576,181.3845c0.1672,0.6686,0.0538,0.869,0.0543,0.869l0,0
				c-0.0217,0.0191-0.147,0.0739-0.4292,0.0739h-27.9118c-1.2427,0-1.4246-0.3115-1.557-0.7753l-13.7878-50.6105l-0.2008-0.7372
				h-0.764H59.7175h-0.7708l-0.1963,0.7453L45.464,193.0761c-0.2002,0.8002-0.2309,0.9232-1.5517,0.9232H19.1955
				c-0.5071,0-0.7055-0.0547-0.7718-0.0811c-0.0263-0.0899-0.0683-0.3828,0.0679-1.2213l47.738-167.0848
				c0.9225-3.3209,1.3893-6.1567,1.7177-14.2229c0-0.6812,0.1522-0.6812,0.3449-0.6812H103.6019 M65.3047,116.6371h1.307h39.8489
				h1.2835l-0.3139-1.2446c-1.448-5.7412-3.5466-13.7417-5.7683-22.212c-5.0456-19.2359-11.325-43.1757-14.2322-56.7791
				l-0.1691-0.791h-0.8089h-0.3363H85.279l-0.1478,0.8233c-3.4494,19.217-11.8662,50.8243-19.4847,78.9418L65.3047,116.6371
				 M103.6019,9.708H68.2922c-0.8406,0-1.3449,0.5044-1.3449,1.6812c-0.3362,8.2385-0.8406,10.9291-1.6812,13.9552L17.5143,192.4775
				c-0.3369,2.0174,0,2.5218,1.6812,2.5218h24.7168c1.6812,0,2.1856-0.3363,2.5218-1.6805l13.2834-50.4424h0h0h53.8048
				l13.7878,50.6105c0.3356,1.1762,1.1768,1.5124,2.5218,1.5124h27.9118c1.345,0,1.6812-0.8413,1.345-2.1856L105.62,11.3892
				C105.2831,10.0443,104.7787,9.708,103.6019,9.708L103.6019,9.708z M66.6117,115.6371
				c7.0617-26.0625,15.9726-59.354,19.5038-79.0266h0.3363c4.2043,19.6726,15.3015,60.3628,20.0088,79.0266H66.6117
				L66.6117,115.6371z"/>
		</g>
	</g>
</g>
<g id="indesign" display="none">
	<g display="inline">
		<path fill="#FFFFFF" d="M156.5302,194.5c-40.127,0-64.083-26.3135-64.083-70.3877c-0.0874-20.9033,7.041-39.6201,20.0718-52.7051
			c12.519-12.5713,29.564-19.2163,49.2935-19.2163c3.6104,0,5.5986,0,8.9814,0.3384l0.5498,0.0552V6.7046
			c0-1.1172,0.9209-1.2041,1.2031-1.2041h27.6055c1.2041,0,1.2041,0.3999,1.2041,0.8633v159.3267c0,4.7979,0,10.7686,0.8555,17.2764
			c-0.0039,0.8125-0.0947,0.8643-1.2129,1.5039C187.2303,191.04,171.8671,194.5,156.5302,194.5z M160.7899,77.2622
			c-22.9736,0-37.8184,17.8545-37.8184,45.4868c0,28.9062,13.0391,45.4854,35.7744,45.4854c5.084,0,9.2236-0.7021,12.3037-2.0879
			l0.2949-0.1328V79.1479l-0.2891-0.1348C168.5311,77.835,165.1727,77.2622,160.7899,77.2622z"/>
		<path d="M200.1525,6.0007c0.492,0,0.6564,0.0815,0.671,0.0815c0.0004,0,0.0007-0.0001,0.0009-0.0002
			c0.0062,0.0153,0.0319,0.0905,0.0319,0.2817v159.3269c0,4.7959,0,10.7608,0.8518,17.2752
			c-0.0013,0.5245-0.0365,0.5446-0.9589,1.0718l-0.0383,0.0219C187.056,190.5631,171.78,194,156.5298,194
			c-18.8966,0-34.698-5.9863-45.696-17.3119c-11.8688-12.2223-17.8868-29.9113-17.8868-52.5798
			c-0.0865-20.7674,6.9901-39.3586,19.9262-52.3487c12.4231-12.4749,29.346-19.0688,48.9391-19.0688c3.5942,0,5.574,0,8.932,0.3358
			l1.0995,0.11v-1.105V6.7045c0-0.1925,0-0.7038,0.7031-0.7038H200.1525 M158.7461,168.7345c5.1548,0,9.3633-0.7175,12.5086-2.1326
			l0.5897-0.2653v-0.6466V79.4662v-0.6369l-0.5772-0.2693c-2.5927-1.2095-6.0198-1.7975-10.4773-1.7975
			c-23.2773,0-38.318,18.0507-38.318,45.9864C122.472,164.2536,147.8395,168.7345,158.7461,168.7345 M200.1525,5.0007h-27.6056
			c-0.8512,0-1.7031,0.5111-1.7031,1.7038v45.3272c-3.4076-0.3408-5.4528-0.3408-9.0315-0.3408v-0.0001
			c-43.1115,0-70.035,31.6947-69.8653,72.4217c0,47.5428,26.9241,70.8875,64.5828,70.8875c14.4843,0,29.9903-3.0675,44.645-10.0538
			c1.1926-0.6822,1.5334-0.8526,1.5334-2.0452c-0.8519-6.4751-0.8519-12.4398-0.8519-17.2104V6.3637
			C201.8563,5.5119,201.5155,5.0007,200.1525,5.0007L200.1525,5.0007z M158.7461,167.7345
			c-19.5971,0-35.2741-12.9502-35.2741-44.9857c0-28.1161,15.3362-44.9864,37.318-44.9864c4.0898,0,7.4981,0.5111,10.0545,1.7038
			v86.2237C167.4361,167.2234,163.0056,167.7345,158.7461,167.7345L158.7461,167.7345z"/>
	</g>
	<g display="inline">
		<path fill="#FFFFFF" d="M33.3295,191.9434c-1.2666,0-1.7158-0.4492-1.7158-1.7148V7.2158c0-1.2666,0.4492-1.7158,1.7158-1.7158
			h26.4121c1.1699,0,1.5454,0.3755,1.5454,1.5454v183.1831c0,1.4336-0.1377,1.7148-1.7158,1.7148H33.3295z"/>
		<path d="M59.7418,6c0.8987,0,1.0452,0.1465,1.0452,1.0452v183.1835c0,1.2149,0,1.2149-1.2156,1.2149H33.3295
			c-1.048,0-1.2156-0.2885-1.2156-1.2149V7.2156C32.1139,6.1676,32.4025,6,33.3295,6H59.7418 M59.7418,5H33.3295
			c-1.3637,0-2.2156,0.5118-2.2156,2.2156v183.0131c0,1.363,0.5118,2.2149,2.2156,2.2149h26.2419
			c1.8749,0,2.2156-0.5118,2.2156-2.2149V7.0452C61.787,5.5111,61.1048,5,59.7418,5L59.7418,5z"/>
	</g>
</g>
<g id="photoshop">
	<g>
		<path fill="#31C5F0" d="M185.9648,77.7613c-13.4038,0-17.9842,6.7864-17.9842,12.3853c0,6.1078,3.0536,10.3496,21.0384,19.6813
			c26.6373,12.8949,34.9511,25.2802,34.9511,43.4346c0,27.1462-20.6991,41.7375-48.6942,41.7375
			c-14.761,0-27.4862-3.0543-34.7815-7.2953c-1.1875-0.5089-1.3571-1.3571-1.3571-2.715v-24.9409
			c0-1.6964,0.8482-2.206,2.0364-1.3571c10.6889,6.9567,22.9045,10.0103,34.1023,10.0103c13.4038,0,19.0027-5.5989,19.0027-13.2342
			c0-6.1078-3.9025-11.537-21.0391-20.3598c-24.0927-11.5371-34.1022-23.2438-34.1022-42.7554
			c0-21.8873,17.1366-40.0411,46.8275-40.0411c14.5913,0,24.7712,2.206,30.3701,4.7507c1.3571,0.8482,1.6964,2.2054,1.6964,3.3928
			v23.2438c0,1.3571-0.8482,2.206-2.5453,1.6964C208.021,80.6459,196.9929,77.7613,185.9648,77.7613L185.9648,77.7613z"/>
		<path fill="#31C5F0" d="M9.8526,7.859c0-1.1875,2.3757-2.0364,3.7321-2.0364C24.4439,5.3137,40.562,4.9744,57.3586,4.9744
			c46.9971,0,65.3206,25.7891,65.3206,58.7045c0,43.0947-31.2183,61.5885-69.5623,61.5885c-6.4471,0-8.6525-0.3393-13.2342-0.3393
			v65.1516c0,1.3571-0.5089,2.0357-2.0357,2.0357H11.8883c-1.3571,0-2.0364-0.5089-2.0364-2.0357V7.859H9.8526z M40.0523,97.9515
			c3.9025,0.3393,6.9567,0.3393,13.7431,0.3393c19.8516,0,38.5143-6.956,38.5143-33.9326c0-21.5473-13.4038-32.4065-35.969-32.4065
			c-6.7864,0-13.2342,0.3393-16.2884,0.5089V97.9515z"/>
	</g>
</g>
<g id="Calque_5">
</g>
<g id="Calque_6">
</g>
<g id="Calque_7">
</g>
<g id="Calque_8">
</g>
</svg>
