<?xml version="1.0" encoding="utf-8"?>
<!-- Generator: Adobe Illustrator 24.1.3, SVG Export Plug-In . SVG Version: 6.00 Build 0)  -->
<svg version="1.1" id="icon" xmlns="http://www.w3.org/2000/svg" xmlns:xlink="http://www.w3.org/1999/xlink" x="0px" y="0px"
	 viewBox="0 0 200 200" enable-background="new 0 0 200 200" xml:space="preserve">
<g>
	<g id="Icon_1_">
		<path d="M34.3274,135.2458c0,0.6549-0.5413,1.1093-1.0826,1.1093h-7.7261c-0.6282,0-1.1695-0.4544-1.1695-1.1093V64.7542
			c0-0.4544,0.5413-1.0156,1.1695-1.0156h7.7323c0.5351,0,1.0765,0.5611,1.0765,1.0156L34.3274,135.2458L34.3274,135.2458z
			 M54.5433,135.2458c0,0.6549-0.5413,1.1093-1.0826,1.1093h-7.7261c-0.6275,0-1.1695-0.4544-1.1695-1.1093V64.7542
			c0-0.4544,0.542-1.0156,1.1695-1.0156h7.7261c0.5413,0,1.0826,0.5611,1.0826,1.0156L54.5433,135.2458L54.5433,135.2458z
			 M74.7591,135.2458c0,0.6549-0.5413,1.1093-1.0826,1.1093h-7.7261c-0.6344,0-1.1688-0.4544-1.1688-1.1093V64.7542
			c0-0.4544,0.5345-1.0156,1.1688-1.0156h7.7261c0.5413,0,1.0826,0.5611,1.0826,1.0156L74.7591,135.2458L74.7591,135.2458z
			 M95.0619,135.2458c0,0.6549-0.5413,1.1093-1.0826,1.1093h-7.7261c-0.6282,0-1.1695-0.4544-1.1695-1.1093V64.7542
			c0-0.4544,0.5413-1.0156,1.1695-1.0156h7.7261c0.5413,0,1.0826,0.5611,1.0826,1.0156L95.0619,135.2458L95.0619,135.2458z
			 M174.5682,63.6449c0.6351,0,1.0826,0.5619,1.0826,1.1093v7.9533c0,0.6412-0.4475,1.1962-1.0826,1.1962h-68.5468
			c-0.4476,0-0.982-0.555-0.982-1.1962v-7.9533c0-0.5543,0.5345-1.1093,0.982-1.1093
			C106.0214,63.6449,174.5682,63.6449,174.5682,63.6449z M174.5682,84.5293c0.6351,0,1.0826,0.5543,1.0826,1.1025v7.9526
			c0,0.6351-0.4475,1.2031-1.0826,1.2031h-68.5468c-0.4476,0-0.982-0.568-0.982-1.2031v-7.9526c0-0.5482,0.5345-1.1025,0.982-1.1025
			H174.5682z M174.5682,105.3131c0.6351,0,1.0826,0.555,1.0826,1.1093v7.9458c0,0.6549-0.4475,1.203-1.0826,1.203h-68.5468
			c-0.4476,0-0.982-0.5482-0.982-1.203v-7.9458c0-0.5543,0.5345-1.1093,0.982-1.1093
			C106.0214,105.3131,174.5682,105.3131,174.5682,105.3131z M174.5682,126.097c0.6351,0,1.0826,0.555,1.0826,1.1093v7.9465
			c0,0.6481-0.4475,1.2024-1.0826,1.2024h-68.5468c-0.4476,0-0.982-0.5543-0.982-1.2024v-7.9465
			c0-0.5543,0.5345-1.1093,0.982-1.1093H174.5682z"/>
	</g>
</g>
</svg>
