<?xml version="1.0" encoding="utf-8"?>
<!-- Generator: Adobe Illustrator 24.1.3, SVG Export Plug-In . SVG Version: 6.00 Build 0)  -->
<svg version="1.1" id="icon" xmlns="http://www.w3.org/2000/svg" xmlns:xlink="http://www.w3.org/1999/xlink" x="0px" y="0px"
	 viewBox="0 0 200 200" enable-background="new 0 0 200 200" xml:space="preserve">
<g>
	<path fill="#BDBCBC" d="M133.4036,78.5619c14.4091-5.397,24.6846-19.2686,24.6846-35.5451C158.0882,22.0205,141.0772,5,120.0905,5
		C99.1029,5,82.0918,22.0205,82.0918,43.0167c0,9.913,3.8368,18.9337,10.0805,25.6978
		C60.3983,72.1146,35.649,98.9921,35.649,131.667c0,34.9781,28.3549,63.333,63.333,63.333c34.9791,0,63.333-28.3549,63.333-63.333
		C162.315,109.3969,150.7857,89.841,133.4036,78.5619z M120.0905,19.0847c13.1923,0,23.9226,10.7397,23.9226,23.9321
		c0,13.1742-10.7302,23.914-23.9226,23.914c-13.1933,0-23.9235-10.7397-23.9235-23.914
		C96.167,29.8244,106.8972,19.0847,120.0905,19.0847z M98.982,180.9153c-27.1657,0-49.2579-22.0836-49.2579-49.2483
		c0-27.1467,22.0922-49.2588,49.2579-49.2588s49.2578,22.1121,49.2578,49.2588C148.2399,158.8317,126.1477,180.9153,98.982,180.9153
		z"/>
	<ellipse fill="#BDBCBC" cx="98.982" cy="131.667" rx="22.5108" ry="22.5203"/>
</g>
</svg>
